<svg width="30" height="30" viewBox="0 0 30 30" fill="none" xmlns="http://www.w3.org/2000/svg">
<path fill-rule="evenodd" clip-rule="evenodd" d="M22.4625 17.1084L22.4717 17.1118C23.2042 17.3859 23.9892 16.8976 24.0892 16.1218C24.14 15.7284 24.1667 15.3284 24.1667 14.9218C24.1667 14.5143 24.14 14.1143 24.0892 13.7209C23.9892 12.9451 23.2042 12.4568 22.4717 12.7309L22.4625 12.7343C21.8633 12.9584 21.1967 12.6484 20.935 12.0651C20.7425 11.6343 20.5075 11.2259 20.235 10.8468C19.8567 10.3209 19.9192 9.60093 20.4192 9.18926L20.42 9.18843C21.025 8.69093 20.9925 7.76426 20.3692 7.29093C19.7367 6.81176 19.0442 6.4101 18.3033 6.09843C17.58 5.79343 16.7592 6.22593 16.63 7.0001C16.5225 7.6426 15.9267 8.05593 15.2792 7.98843C15.0508 7.96426 14.8183 7.95176 14.5833 7.95176C14.3483 7.95176 14.1158 7.96426 13.8875 7.98843C13.24 8.05593 12.6442 7.6426 12.5375 7.0001C12.4083 6.22593 11.5875 5.79343 10.8642 6.09843C10.1233 6.4101 9.43 6.81176 8.79833 7.29093C8.17417 7.76426 8.1425 8.69093 8.74667 9.18843L8.7475 9.18926C9.2475 9.60093 9.31083 10.3209 8.9325 10.8468C8.66 11.2259 8.425 11.6343 8.23167 12.0651C7.97083 12.6484 7.30333 12.9584 6.70417 12.7343L6.695 12.7309C5.9625 12.4568 5.1775 12.9451 5.0775 13.7209C5.02667 14.1143 5 14.5143 5 14.9218C5 15.3284 5.02667 15.7284 5.0775 16.1218C5.1775 16.8976 5.9625 17.3859 6.695 17.1118L6.70417 17.1084C7.30333 16.8843 7.97083 17.1943 8.23167 17.7776C8.425 18.2084 8.66 18.6168 8.9325 18.9959C9.31083 19.5218 9.2475 20.2418 8.7475 20.6534L8.74667 20.6543C8.1425 21.1518 8.17417 22.0784 8.79833 22.5518C9.43 23.0309 10.1233 23.4326 10.8642 23.7451C11.5875 24.0493 12.4083 23.6168 12.5375 22.8426C12.6442 22.2009 13.24 21.7868 13.8875 21.8543C14.1158 21.8784 14.3483 21.8909 14.5833 21.8909C14.8183 21.8909 15.0508 21.8784 15.2792 21.8543C15.9267 21.7868 16.5225 22.2009 16.63 22.8426C16.7592 23.6168 17.58 24.0493 18.3033 23.7451C19.0442 23.4326 19.7367 23.0309 20.3692 22.5518C20.9925 22.0784 21.025 21.1518 20.42 20.6543L20.4192 20.6534C19.9192 20.2418 19.8567 19.5218 20.235 18.9959C20.5075 18.6168 20.7425 18.2084 20.935 17.7776C21.1967 17.1943 21.8633 16.8843 22.4625 17.1084Z" fill="#364bb5" stroke-width="0.666667" stroke-linecap="round" stroke-linejoin="round"/>
<path fill-rule="evenodd" clip-rule="evenodd" d="M18.2143 14.5119C18.2143 16.5827 16.5351 18.2619 14.4643 18.2619C12.3935 18.2619 10.7143 16.5827 10.7143 14.5119C10.7143 12.4411 12.3935 10.7619 14.4643 10.7619C16.5351 10.7619 18.2143 12.4411 18.2143 14.5119Z" fill="#F9F9F9" stroke="#F9F9F9" stroke-width="0.666667" stroke-linecap="round" stroke-linejoin="round"/>
</svg>
