<svg width="30" height="30" viewBox="0 0 30 30" fill="none" xmlns="http://www.w3.org/2000/svg">
<path d="M27 15C27 8.38307 21.6169 3 15 3C8.38307 3 3 8.38307 3 15C3 17.1565 3.57401 19.2562 4.664 21.0995L3.04412 26.9556L8.9005 25.336C10.7438 26.426 12.8435 27 15 27C21.6169 27 27 21.6169 27 15Z" fill="#364bb5"/>
<path d="M26 14.5C26 20.299 21.357 25 15.6296 25C11.5808 25 10.963 22.9 6.2963 23.95C4.22222 25 5.25926 16.1995 5.25926 14.5C5.25926 8.70101 9.90223 4 15.6296 4C21.357 4 26 8.70101 26 14.5Z" fill="#364bb5"/>
<path d="M17 20.5C17 21.3284 16.3284 22 15.5 22C14.6716 22 14 21.3284 14 20.5C14 19.6716 14.6716 19 15.5 19C16.3284 19 17 19.6716 17 20.5Z" fill="white"/>
<path d="M15 18C14.6104 18 14.2941 17.6874 14.2941 17.3023V16.3628C14.2941 15.4773 14.8627 14.6837 15.7078 14.3889C16.8324 13.9973 17.5883 12.813 17.5883 11.9535C17.5883 10.5423 16.4278 9.39533 15 9.39533C13.5722 9.39533 12.4117 10.5423 12.4117 11.9535C12.4117 12.3386 12.0955 12.6512 11.7059 12.6512C11.3162 12.6512 11 12.3386 11 11.9535C11 9.77397 12.794 8 15 8C17.206 8 19 9.77397 19 11.9535C19 13.5052 17.7604 15.1526 16.1774 15.7052C15.8951 15.8028 15.7059 16.0678 15.7059 16.3637V17.3023C15.7059 17.6874 15.3896 18 15 18Z" fill="white"/>
</svg>
