<svg width="40" height="40" viewBox="0 0 40 40" fill="none" xmlns="http://www.w3.org/2000/svg">
<path fill-rule="evenodd" clip-rule="evenodd" d="M6.90675 20.0029C6.90675 11.5862 13.8567 4.76955 22.3401 5.00289C30.1567 5.21955 36.6901 11.7529 36.9067 19.5696C37.1401 28.0529 30.3234 35.0029 21.9067 35.0029C18.4234 35.0029 15.2401 33.8196 12.7067 31.8196C11.9234 31.2196 11.8734 30.0362 12.5734 29.3362C13.1734 28.7362 14.1067 28.6862 14.7734 29.2029C16.7401 30.7529 19.2234 31.6696 21.9067 31.6696C28.4067 31.6696 33.6567 26.3529 33.5734 19.8362C33.4901 13.6362 28.2734 8.41955 22.0734 8.33622C15.5401 8.25289 10.2401 13.5029 10.2401 20.0029H13.2234C13.9734 20.0029 14.3401 20.9029 13.8234 21.4196L9.17342 26.0862C8.84008 26.4196 8.32342 26.4196 7.99008 26.0862L3.34008 21.4196C2.80675 20.9029 3.17342 20.0029 3.92342 20.0029H6.90675ZM20.2401 14.5862C20.2401 13.9029 20.8067 13.3362 21.4901 13.3362C22.1734 13.3362 22.7401 13.9029 22.7401 14.5696V20.2362L27.5401 23.0862C28.1234 23.4362 28.3234 24.2029 27.9734 24.8029C27.6234 25.3862 26.8568 25.5862 26.2568 25.2362L21.0567 22.1529C20.5567 21.8529 20.2401 21.3029 20.2401 20.7196V14.5862Z" fill="#364BB5"/>
</svg>
