<svg width="309" height="309" viewBox="0 0 309 309" fill="none" xmlns="http://www.w3.org/2000/svg">
<circle cx="144" cy="257" r="5" transform="rotate(-180 144 257)" fill="#159ECA"/>
<circle cx="199.125" cy="62.1237" r="5" transform="rotate(15 199.125 62.1237)" fill="#159ECA"/>
<circle cx="110" cy="247" r="5" transform="rotate(-180 110 247)" fill="#159ECA"/>
<circle cx="228.125" cy="83.1237" r="5" transform="rotate(15 228.125 83.1237)" fill="#159ECA"/>
<circle cx="80" cy="227" r="5" transform="rotate(-180 80 227)" fill="#159ECA"/>
<circle cx="247.125" cy="113.124" r="5" transform="rotate(15 247.125 113.124)" fill="#159ECA"/>
<circle cx="60" cy="197" r="5" transform="rotate(-180 60 197)" fill="#159ECA"/>
<circle cx="52" cy="162" r="5" transform="rotate(-180 52 162)" fill="#159ECA"/>
<circle cx="180" cy="255" r="5" transform="rotate(-180 180 255)" fill="#159ECA"/>
<circle cx="164.125" cy="53.1237" r="5" transform="rotate(15 164.125 53.1237)" fill="#159ECA"/>
<circle cx="212" cy="240" r="5" transform="rotate(-180 212 240)" fill="#159ECA"/>
<circle cx="128.125" cy="55.1237" r="5" transform="rotate(15 128.125 55.1237)" fill="#159ECA"/>
<circle cx="237" cy="215" r="5" transform="rotate(-180 237 215)" fill="#159ECA"/>
<circle cx="96.1254" cy="69.1237" r="5" transform="rotate(15 96.1254 69.1237)" fill="#159ECA"/>
<circle cx="253" cy="183" r="5" transform="rotate(-180 253 183)" fill="#159ECA"/>
<circle cx="71.1254" cy="94.1237" r="5" transform="rotate(15 71.1254 94.1237)" fill="#159ECA"/>
<circle cx="256" cy="147" r="5" transform="rotate(-180 256 147)" fill="#159ECA"/>
<circle cx="55.7152" cy="127.759" r="5" transform="rotate(15 55.7152 127.759)" fill="#159ECA"/>
<circle cx="281" cy="159" r="4" transform="rotate(-180 281 159)" fill="#159ECA"/>
<circle cx="29.8987" cy="124.899" r="4" transform="rotate(15 29.8987 124.899)" fill="#159ECA"/>
<circle cx="26.8987" cy="150.899" r="4" transform="rotate(15 26.8987 150.899)" fill="#159ECA"/>
<circle cx="277" cy="186" r="4" transform="rotate(-180 277 186)" fill="#159ECA"/>
<circle cx="39.8987" cy="98.899" r="4" transform="rotate(15 39.8987 98.899)" fill="#159ECA"/>
<circle cx="269" cy="211" r="4" transform="rotate(-180 269 211)" fill="#159ECA"/>
<circle cx="53.8987" cy="76.899" r="4" transform="rotate(15 53.8987 76.899)" fill="#159ECA"/>
<circle cx="255" cy="234" r="4" transform="rotate(-180 255 234)" fill="#159ECA"/>
<circle cx="71.8987" cy="57.899" r="4" transform="rotate(15 71.8987 57.899)" fill="#159ECA"/>
<circle cx="236" cy="252" r="4" transform="rotate(-180 236 252)" fill="#159ECA"/>
<circle cx="94.8987" cy="42.899" r="4" transform="rotate(15 94.8987 42.899)" fill="#159ECA"/>
<circle cx="215" cy="268" r="4" transform="rotate(-180 215 268)" fill="#159ECA"/>
<circle cx="118.899" cy="32.899" r="4" transform="rotate(15 118.899 32.899)" fill="#159ECA"/>
<circle cx="191" cy="276" r="4" transform="rotate(-180 191 276)" fill="#159ECA"/>
<circle cx="144.899" cy="27.899" r="4" transform="rotate(15 144.899 27.899)" fill="#159ECA"/>
<circle cx="163" cy="282" r="4" transform="rotate(-180 163 282)" fill="#159ECA"/>
<circle cx="169.899" cy="28.899" r="4" transform="rotate(15 169.899 28.899)" fill="#159ECA"/>
<circle cx="138" cy="282" r="4" transform="rotate(-180 138 282)" fill="#159ECA"/>
<circle cx="195.899" cy="34.899" r="4" transform="rotate(15 195.899 34.899)" fill="#159ECA"/>
<circle cx="112" cy="275" r="4" transform="rotate(-180 112 275)" fill="#159ECA"/>
<circle cx="220.899" cy="45.899" r="4" transform="rotate(15 220.899 45.899)" fill="#159ECA"/>
<circle cx="87" cy="263" r="4" transform="rotate(-180 87 263)" fill="#159ECA"/>
<circle cx="242.899" cy="62.899" r="4" transform="rotate(15 242.899 62.899)" fill="#159ECA"/>
<circle cx="66" cy="247" r="4" transform="rotate(-180 66 247)" fill="#159ECA"/>
<circle cx="259.899" cy="82.899" r="4" transform="rotate(15 259.899 82.899)" fill="#159ECA"/>
<circle cx="49" cy="227" r="4" transform="rotate(-180 49 227)" fill="#159ECA"/>
<circle cx="271.899" cy="106.899" r="4" transform="rotate(15 271.899 106.899)" fill="#159ECA"/>
<circle cx="278.899" cy="132.899" r="4" transform="rotate(15 278.899 132.899)" fill="#159ECA"/>
<circle cx="38" cy="203" r="4" transform="rotate(-180 38 203)" fill="#159ECA"/>
<circle cx="30" cy="178" r="4" transform="rotate(-180 30 178)" fill="#159ECA"/>
<circle cx="306" cy="148" r="3" transform="rotate(-180 306 148)" fill="#159ECA"/>
<circle cx="8.67601" cy="109.674" r="3" transform="rotate(15 8.67601 109.674)" fill="#159ECA"/>
<circle cx="303" cy="175" r="3" transform="rotate(-180 303 175)" fill="#159ECA"/>
<circle cx="19.676" cy="84.6742" r="3" transform="rotate(15 19.676 84.6742)" fill="#159ECA"/>
<circle cx="297" cy="202" r="3" transform="rotate(-180 297 202)" fill="#159ECA"/>
<circle cx="32.676" cy="62.6742" r="3" transform="rotate(15 32.676 62.6742)" fill="#159ECA"/>
<circle cx="288" cy="225" r="3" transform="rotate(-180 288 225)" fill="#159ECA"/>
<circle cx="51.676" cy="42.6742" r="3" transform="rotate(15 51.676 42.6742)" fill="#159ECA"/>
<circle cx="274" cy="247" r="3" transform="rotate(-180 274 247)" fill="#159ECA"/>
<circle cx="72.676" cy="26.6742" r="3" transform="rotate(15 72.676 26.6742)" fill="#159ECA"/>
<circle cx="258" cy="267" r="3" transform="rotate(-180 258 267)" fill="#159ECA"/>
<circle cx="96.676" cy="15.6742" r="3" transform="rotate(15 96.676 15.6742)" fill="#159ECA"/>
<circle cx="234" cy="283" r="3" transform="rotate(-180 234 283)" fill="#159ECA"/>
<circle cx="120.676" cy="7.67423" r="3" transform="rotate(15 120.676 7.67423)" fill="#159ECA"/>
<circle cx="212" cy="295" r="3" transform="rotate(-180 212 295)" fill="#159ECA"/>
<circle cx="146.676" cy="3.67423" r="3" transform="rotate(15 146.676 3.67423)" fill="#159ECA"/>
<circle cx="188" cy="303" r="3" transform="rotate(-180 188 303)" fill="#159ECA"/>
<circle cx="172.676" cy="4.67423" r="3" transform="rotate(15 172.676 4.67423)" fill="#159ECA"/>
<circle cx="160" cy="306" r="3" transform="rotate(-180 160 306)" fill="#159ECA"/>
<circle cx="198.676" cy="10.6742" r="3" transform="rotate(15 198.676 10.6742)" fill="#159ECA"/>
<circle cx="134" cy="306" r="3" transform="rotate(-180 134 306)" fill="#159ECA"/>
<circle cx="223.676" cy="19.6742" r="3" transform="rotate(15 223.676 19.6742)" fill="#159ECA"/>
<circle cx="107" cy="300" r="3" transform="rotate(-180 107 300)" fill="#159ECA"/>
<circle cx="4.67601" cy="135.674" r="3" transform="rotate(15 4.67601 135.674)" fill="#159ECA"/>
<circle cx="3.67601" cy="161.674" r="3" transform="rotate(15 3.67601 161.674)" fill="#159ECA"/>
<circle cx="83" cy="289" r="3" transform="rotate(-180 83 289)" fill="#159ECA"/>
<circle cx="246.676" cy="34.6742" r="3" transform="rotate(15 246.676 34.6742)" fill="#159ECA"/>
<circle cx="62" cy="275" r="3" transform="rotate(-180 62 275)" fill="#159ECA"/>
<circle cx="266.676" cy="52.6742" r="3" transform="rotate(15 266.676 52.6742)" fill="#159ECA"/>
<circle cx="42" cy="258" r="3" transform="rotate(-180 42 258)" fill="#159ECA"/>
<circle cx="281.676" cy="72.6742" r="3" transform="rotate(15 281.676 72.6742)" fill="#159ECA"/>
<circle cx="27" cy="235" r="3" transform="rotate(-180 27 235)" fill="#159ECA"/>
<circle cx="294.676" cy="96.6742" r="3" transform="rotate(15 294.676 96.6742)" fill="#159ECA"/>
<circle cx="302.676" cy="122.674" r="3" transform="rotate(15 302.676 122.674)" fill="#159ECA"/>
<circle cx="15" cy="213" r="3" transform="rotate(-180 15 213)" fill="#159ECA"/>
<circle cx="6" cy="186" r="3" transform="rotate(-180 6 186)" fill="#159ECA"/>
</svg>

