<svg width="33" height="30" viewBox="0 0 33 30" fill="none" xmlns="http://www.w3.org/2000/svg">
<path d="M16.7821 0.00251808C7.67097 -0.153142 0.15818 7.10686 0.00251971 16.218C-0.0858954 21.384 2.21663 26.0271 5.88275 29.1147C6.12246 28.9055 6.37961 28.7138 6.66541 28.5581L11.5886 25.8727C12.2343 25.5202 12.6365 24.8434 12.6365 24.1075V22.0901C12.6365 22.0901 11.1914 20.3617 10.6404 17.9601C10.1833 17.6644 9.87699 17.1532 9.87699 16.571V14.3631C9.87699 13.8775 10.093 13.4435 10.4287 13.1396V9.94797C10.4287 9.94797 9.77301 4.98116 16.4994 4.98116C23.2258 4.98116 22.5702 9.94797 22.5702 9.94797V13.1396C22.9064 13.4435 23.1218 13.8775 23.1218 14.3631V16.571C23.1218 17.3132 22.6237 17.9377 21.9475 18.1463C21.5708 19.3175 21.0273 20.4339 20.3087 21.4488C20.1275 21.7047 19.9582 21.9214 19.81 22.0901V24.1585C19.81 24.92 20.2402 25.6167 20.9214 25.9567L26.1933 28.5924C26.5096 28.7505 26.7954 28.9504 27.0588 29.1727C30.6141 26.2076 32.911 21.7744 32.9963 16.7821C33.1532 7.67097 25.8938 0.158178 16.7821 0.00251808Z" fill="#364bb5"/>
</svg>
