<svg width="30" height="30" viewBox="0 0 30 30" fill="none" xmlns="http://www.w3.org/2000/svg">
<path d="M25.8657 25.2176L19.1718 18.5237C20.5622 16.9799 21.4167 14.9445 21.4167 12.7083C21.4167 7.90659 17.5101 4 12.7083 4C7.90659 4 4 7.90659 4 12.7083C4 17.5101 7.90659 21.4167 12.7083 21.4167C14.9446 21.4167 16.9799 20.5622 18.5237 19.1718L25.2176 25.8657C25.3071 25.9552 25.4244 26 25.5417 26C25.659 26 25.7762 25.9552 25.8658 25.8657C26.0448 25.6867 26.0448 25.3966 25.8657 25.2176ZM12.7083 20.5C8.41238 20.5 4.9167 17.0048 4.9167 12.7083C4.9167 8.41195 8.41238 4.91665 12.7083 4.91665C17.0043 4.91665 20.5 8.4119 20.5 12.7083C20.5 17.0048 17.0043 20.5 12.7083 20.5Z" fill="#364BB5"/>
</svg>
