<svg width="30" height="30" viewBox="0 0 30 30" fill="none" xmlns="http://www.w3.org/2000/svg">
<path fill-rule="evenodd" clip-rule="evenodd" d="M18.9212 25.875H11.0789C10.1628 25.875 9.38205 25.2594 9.23653 24.4216L6.95389 11.3423C6.77105 10.29 5.36434 9.33643 6.86993 9.33643H23.1301C24.6357 9.33643 23.229 10.29 23.0453 11.3423L20.7635 24.4216C20.6162 25.2594 19.8363 25.875 18.9212 25.875Z" stroke="#364BB5"/>
<path fill-rule="evenodd" clip-rule="evenodd" d="M23.0665 9.33602H6.93404C6.22602 9.33602 5.7764 8.57169 6.11502 7.94479L6.67472 6.90654C7.00121 6.30129 7.62994 5.92383 8.3137 5.92383H21.6868C22.3706 5.92383 22.9993 6.30129 23.3249 6.90654L23.8855 7.94479C24.2232 8.57169 23.7735 9.33602 23.0665 9.33602Z" stroke="#364BB5"/>
<path d="M15 12.5928V22.5799" stroke="#364BB5" stroke-linecap="round"/>
<path d="M10.8145 12.6455L12.5393 22.5272" stroke="#364BB5" stroke-linecap="round"/>
<path d="M15 22.618V12.6309" stroke="#364BB5" stroke-linecap="round"/>
<path d="M17.7207 22.5658L19.4455 12.6841" stroke="#364BB5" stroke-linecap="round"/>
<path d="M12.252 5.83381C12.252 5.10055 12.8462 4.5 13.5728 4.5H16.4301C17.1568 4.5 17.7519 5.10055 17.7519 5.83381" stroke="#364BB5"/>
</svg>
