<svg width="96" height="96" viewBox="0 0 96 96" fill="none" xmlns="http://www.w3.org/2000/svg">
<g clip-path="url(#clip0)">
<path d="M23.7426 87.1031C19.8827 87.1031 16.7539 83.9741 16.7539 80.1144V6.98869C16.7537 3.12787 19.8835 0 23.7426 0H54.7097C60.0338 0 88.1447 28.1107 88.1447 33.4342V80.1144C88.1447 83.9743 85.0157 87.1031 81.156 87.1031H23.7426Z" fill="#EFF1F9"/>
<path d="M88.145 33.4348V36.3911C88.145 30.1671 83.0979 25.1199 76.8738 25.1199H70.0138C66.1548 25.1199 63.0251 21.9902 63.0251 18.1312V11.2712C63.0251 5.04712 57.978 0 51.7539 0H54.7102C60.0333 0 65.1403 2.115 68.9042 5.87906L82.2662 19.2411C86.0298 23.0049 88.145 28.1117 88.145 33.4348Z" fill="#A4ADDD"/>
<path d="M45.4901 53.3555V73.7883C45.4901 74.6697 46.2046 75.3843 47.0861 75.3843H57.81C58.6914 75.3843 59.406 74.6697 59.406 73.7883V53.3555H63.965C65.3868 53.3555 66.0989 51.6365 65.0936 50.6311L54.9065 40.444C53.5488 39.0864 51.3474 39.0864 49.9897 40.444L39.8026 50.6311C38.7973 51.6365 39.5094 53.3555 40.9312 53.3555H45.4901Z" fill="#1BC7FE"/>
<path d="M40.0124 34.8369H64.8854C66.6031 34.8369 67.9955 33.4445 67.9955 31.7268V31.6413C67.9955 29.9236 66.6031 28.5312 64.8854 28.5312H40.0124C38.2947 28.5312 36.9023 29.9236 36.9023 31.6413V31.7268C36.9023 33.4443 38.2947 34.8369 40.0124 34.8369Z" fill="#1BC7FE"/>
</g>
<defs>
<clipPath id="clip0">
<rect width="96" height="96" fill="white"/>
</clipPath>
</defs>
</svg>
